<svg xmlns="http://www.w3.org/2000/svg">
<path d="M61.3325 27.7008C60.9775 25.3284 60.2757 23.021 59.2495 20.8527C58.5403 19.3768 57.5362 18.0619 56.2991 16.9892C54.7241 15.6492 52.723 14.9147 50.6551 14.9176C49.6901 14.9125 48.7292 15.0451 47.8017 15.3114L50.8491 8.79419L44.6344 4.38853H40.1488C39.3841 4.38853 38.5509 3.81785 37.4895 3.07597C35.6119 1.77482 33.0439 0 28.7067 0C25.0372 0 22.1496 1.02152 19.8612 3.12162C19.8612 3.12162 5.02345 17.5827 4.95497 17.6683C4.04298 18.6103 3.286 19.6909 2.7122 20.8698C1.68857 23.0391 0.986849 25.3461 0.62921 27.718C-0.371364 33.2382 -0.176764 38.9089 1.19989 44.3476C2.77635 50.0853 5.49369 55.4463 9.18942 60.1098C13.8804 66.1419 20.2892 71.6204 28.2445 76.397L30.978 78.0349L33.7059 76.397C41.6612 71.6204 48.0756 66.1248 52.7609 60.1098C56.4566 55.4463 59.174 50.0853 60.7504 44.3476C62.1333 38.9042 62.3318 33.2275 61.3325 27.7008Z" fill="white"/>
<path d="M26.5954 21.5879H18.3262L17.5786 34.0401C18.0346 34.1076 18.4786 34.2402 18.8969 34.4339L26.5954 21.5879Z" />
<path d="M20.1696 49.8262H20.1011V50.7906L20.512 50.9675C21.328 51.2927 22.2019 51.4481 23.08 51.4241C24.0229 51.4513 24.9602 51.2701 25.825 50.8933V49.9118C24.9758 50.3431 24.0321 50.555 23.08 50.5281C22.1936 50.555 21.3135 50.3712 20.512 49.9917L20.1696 49.8262Z" />
<path d="M20.512 53.7007L20.1696 53.5352H20.1011V54.5453L20.512 54.7222C21.328 55.0474 22.2019 55.2027 23.08 55.1787C23.7928 55.1919 24.5033 55.0937 25.1858 54.8877V53.8947C24.5117 54.1402 23.7972 54.2563 23.08 54.2371C22.1936 54.264 21.3135 54.0801 20.512 53.7007Z" />
<path d="M20.512 57.3991L20.1696 57.2393L20.1011 57.2051V58.2095C20.2323 58.2723 20.3693 58.335 20.512 58.3921C21.3288 58.7146 22.2021 58.8698 23.08 58.8486C23.4905 58.8498 23.9006 58.8212 24.307 58.763V57.8328C23.9019 57.9038 23.4913 57.9382 23.08 57.9355C22.1933 57.9658 21.3124 57.7818 20.512 57.3991Z" />
<path d="M29.8084 4.43465C30.4939 4.58298 31.1576 4.81889 31.7829 5.13659C32.4118 5.45414 33.0114 5.82652 33.5748 6.24941C34.4528 6.94089 35.3714 7.57929 36.3255 8.16119V6.59753C35.6236 6.21517 34.9274 5.75292 34.2026 5.29638C33.5566 4.88908 32.8769 4.53778 32.171 4.24632C31.4539 3.96389 30.7043 3.77217 29.9396 3.67564C29.1827 3.57668 28.4172 3.56137 27.6569 3.62999H27.5256V4.23491H27.6797C28.3943 4.22784 29.1076 4.29478 29.8084 4.43465Z" />
<path d="M60.4304 27.8544C60.0908 25.5769 59.4178 23.3617 58.4331 21.2802C57.7832 19.9085 56.8564 18.6863 55.7109 17.6906C54.2996 16.4908 52.507 15.8333 50.6547 15.8359C49.4748 15.816 48.3032 16.0365 47.2113 16.4839C46.1193 16.9313 45.1298 17.5962 44.303 18.4382L41.5466 15.4649L41.9917 14.5062H45.7411L45.296 15.4649H46.7341L49.7073 9.13037L44.3429 5.31822H40.1484C39.0984 5.31822 38.1568 4.66765 36.9697 3.84016C35.0922 2.54471 32.7581 0.929688 28.7063 0.929688C25.2822 0.929688 22.5943 1.8656 20.4828 3.78309L10.9695 13.0681C10.9695 13.0681 5.62226 18.2898 5.61084 18.3069C4.76638 19.1826 4.06534 20.186 3.53357 21.2802C2.54882 23.3617 1.87581 25.5769 1.53618 27.8544C0.564045 33.245 0.758643 38.7813 2.10686 44.0903C3.65578 49.7126 6.32266 54.9649 9.94802 59.5329C14.5648 65.4737 20.888 70.878 28.7805 75.5975L31.0632 76.9501L33.3174 75.5975C41.1814 70.878 47.5102 65.4737 52.1499 59.5329C55.7752 54.9649 58.4421 49.7126 59.991 44.0903C61.2957 38.7719 61.4455 33.2356 60.4304 27.8544ZM21.3788 4.73613C22.0579 4.11409 24.1237 2.21372 28.7063 2.21372C32.3529 2.21372 34.4131 3.64042 36.2279 4.89592C37.5518 5.81471 38.6932 6.60796 40.1484 6.60796H43.9492L48.0923 9.55267L46.3803 13.2221H42.6309C42.0811 13.1883 41.5567 12.9782 41.1357 12.6229C40.8653 12.3844 40.6449 12.0947 40.4872 11.7704C40.3295 11.4462 40.2376 11.0939 40.2169 10.734H39.5606C39.5354 11.1896 39.5934 11.646 39.7318 12.0808C39.8806 12.5371 40.1236 12.9571 40.4452 13.3135C40.5885 13.4711 40.7451 13.6162 40.9132 13.7472L39.9944 15.7217L42.5282 18.4667H40.605L37.2665 15.6133H36.4904L38.9443 18.4667H34.0136L31.1602 15.6133H29.4482C29.7868 14.8491 29.9803 14.0286 30.0189 13.1936C30.0189 13.0395 30.0189 12.8912 30.0189 12.7371L29.9846 12.2805V12.058L29.9447 11.8297L29.8648 11.3846C29.7258 10.7881 29.509 10.2125 29.2199 9.67252C28.9289 9.14513 28.568 8.65946 28.147 8.22869L27.9929 8.0689L27.8217 7.92053L27.485 7.63519C27.2486 7.45408 27.0008 7.28824 26.7432 7.13869C25.9449 6.67434 25.0548 6.38998 24.1351 6.3055C23.8792 6.27929 23.6219 6.26975 23.3647 6.27697V6.90471C24.4215 6.9366 25.4495 7.25625 26.338 7.82922C26.5568 7.96981 26.7665 8.12421 26.9657 8.29147C27.0627 8.37707 27.154 8.46838 27.2453 8.55969L27.388 8.69094L27.5136 8.83932C27.8562 9.22625 28.1442 9.65828 28.3696 10.1234C28.5895 10.584 28.7487 11.0713 28.8433 11.5729L28.8946 11.9552V12.1436V12.7142C28.8946 12.8398 28.8946 12.9653 28.8946 13.0909C28.8013 14.097 28.4298 15.0574 27.8217 15.8644L27.0513 16.8973H30.6124L32.1589 18.4439H17.5095V13.0681H12.8357L21.3788 4.73613ZM14.7817 23.7113C14.5373 24.676 14.0011 25.5417 13.2463 26.1903C12.4915 26.8389 11.5549 27.2387 10.5644 27.3351C10.4103 27.3351 10.2505 27.3351 10.085 27.3351C8.8592 27.3337 7.67951 26.8678 6.78361 26.0312C5.88771 25.1946 5.3422 24.0495 5.25702 22.8267C5.25702 22.7183 5.25702 22.6098 5.25702 22.5014C5.25886 21.8405 5.39543 21.1868 5.65839 20.5804C5.92135 19.9741 6.30519 19.4277 6.78645 18.9746L11.5117 14.3635H16.2255V19.0031L14.7817 23.7113ZM58.6214 43.7593C57.7302 47.0591 56.4203 50.2312 54.7236 53.1983L54.4497 53.6435L54.2443 53.9916L53.9703 54.4424L53.7306 54.8248L53.4738 55.2414C53.314 55.4868 53.1543 55.7322 52.9888 55.9775L52.7947 56.2629L52.4238 56.7993L52.2069 57.1075L51.8132 57.6782L51.6191 57.9464C51.4194 58.2089 51.2254 58.4714 51.0484 58.7339L50.4778 59.4587C48.2429 62.211 45.7595 64.7517 43.0589 67.0488C40.8916 68.8896 38.6204 70.6045 36.2564 72.1849C35.115 72.9667 33.8824 73.7371 32.6326 74.4676L31.0461 75.4206L29.4539 74.4676C21.7326 69.8337 15.5293 64.5378 11.0095 58.7225L10.6214 58.2089L10.3589 57.8665L9.89666 57.2273L9.73687 57.0048C9.55995 56.7594 9.39446 56.514 9.22325 56.2686L9.13765 56.143C8.95503 55.8691 8.77242 55.5724 8.56697 55.3213C8.56872 55.3061 8.56872 55.2908 8.56697 55.2756C6.26721 51.7228 4.53443 47.8336 3.43084 43.7479C2.10631 38.6285 1.89613 33.2845 2.81451 28.077C3.06873 26.5032 3.46605 24.956 4.00152 23.4545C4.15297 24.4101 4.52628 25.3171 5.09152 26.1024C4.90891 26.8101 4.75482 27.5576 4.60645 28.3851C4.38198 29.6863 4.22599 30.9779 4.13849 32.2601L12.7272 36.2548C12.8703 36.0229 13.0325 35.8033 13.2123 35.5985C13.344 35.4545 13.4831 35.3173 13.6289 35.1876L8.43571 28.4137C9.36439 28.6791 10.3438 28.7144 11.2891 28.5164L14.8445 34.4343C15.2628 34.2407 15.7067 34.1081 16.1627 34.0406L15.632 25.2122C15.8163 24.848 15.9616 24.4654 16.0657 24.0708L17.3212 19.9334L17.3669 19.785H44.868L45.062 19.5681C45.766 18.7886 46.6304 18.1708 47.5958 17.757C48.5612 17.3433 49.6047 17.1434 50.6547 17.1713C52.2025 17.1735 53.6992 17.7257 54.8777 18.7292C55.8822 19.6066 56.696 20.6807 57.2689 21.8851C58.1938 23.8542 58.8263 25.9479 59.1464 28.0998C60.093 33.2971 59.9139 38.637 58.6214 43.7593Z" />
<path d="M44.241 9.94098C44.3798 9.94098 44.5155 9.89982 44.631 9.82269C44.7464 9.74556 44.8364 9.63593 44.8895 9.50767C44.9426 9.3794 44.9565 9.23827 44.9295 9.10211C44.9024 8.96594 44.8355 8.84087 44.7373 8.7427C44.6392 8.64453 44.5141 8.57768 44.3779 8.5506C44.2418 8.52351 44.1006 8.53741 43.9724 8.59054C43.8441 8.64367 43.7345 8.73364 43.6574 8.84907C43.5802 8.9645 43.5391 9.10022 43.5391 9.23905C43.5391 9.42521 43.613 9.60375 43.7447 9.73539C43.8763 9.86703 44.0548 9.94098 44.241 9.94098Z" />
<path d="M40.2172 9.61121C40.2773 9.34631 40.4118 9.10409 40.6049 8.91303C40.798 8.72196 41.0416 8.58999 41.3072 8.53263V7.85352H39.5552V9.61121H40.2172Z" />
<path d="M57.3494 28.3861C56.6075 24.0946 54.8441 18.9756 50.6553 18.9756C49.6888 18.9343 48.729 19.1555 47.878 19.6157C47.027 20.0759 46.3164 20.7579 45.8217 21.5893H30.5331L20.0897 35.2114C20.2222 35.3278 20.348 35.4516 20.4663 35.5824C20.6791 35.8115 20.8702 36.0598 21.037 36.3243L28.5415 32.9401L27.9251 35.6509L21.5849 37.6654C21.7115 38.136 21.7729 38.6218 21.7675 39.1092C21.5586 39.0653 21.3527 39.0081 21.1512 38.938C20.94 38.8638 20.7403 38.7782 20.5405 38.6869L20.2552 38.5442L19.6845 38.276C19.1811 38.0584 18.6517 37.9069 18.1094 37.8252L17.8355 37.7852C17.6928 37.7852 17.5387 37.7852 17.379 37.751H16.9452H16.814H16.3803C16.2319 37.751 16.0835 37.751 15.9523 37.7852L15.6441 37.8252C15.1149 37.895 14.597 38.0331 14.1032 38.2361C13.875 38.3331 13.6695 38.4358 13.4698 38.5271L13.1616 38.6755C12.9733 38.7611 12.7793 38.8467 12.5909 38.9209C12.3891 38.9903 12.1833 39.0474 11.9746 39.0921C11.9698 38.5852 12.0351 38.0802 12.1686 37.5912L4.04785 34.909C4.04785 35.8563 4.09351 36.7979 4.16769 37.7281C4.16769 37.8252 4.16769 37.9165 4.16769 38.0078L4.21906 38.5785C4.21906 38.7211 4.21906 38.8695 4.259 39.0122H4.80115H5.05225H5.08078C5.27482 39.0122 5.45743 39.0521 5.62293 39.0807C6.18874 39.1952 6.73604 39.3872 7.24937 39.6513C8.28514 40.2292 9.45321 40.5281 10.6392 40.5188C11.8208 40.5453 12.989 40.2641 14.0291 39.7027C14.2745 39.5886 14.5084 39.4744 14.7595 39.3774C15.3061 39.1645 15.8852 39.0467 16.4716 39.0293H17.2135C17.7795 39.044 18.339 39.1539 18.8684 39.3546C19.1481 39.4573 19.3992 39.5772 19.6674 39.7027C20.7148 40.2665 21.8909 40.5477 23.0801 40.5188C24.273 40.5497 25.4534 40.2684 26.5041 39.7027C26.6925 39.6171 26.8751 39.5258 27.0748 39.4459L26.7895 40.7014L27.9708 40.4617L27.6854 41.7914C27.1046 41.9317 26.543 42.1425 26.0134 42.4191C25.1195 42.9044 24.1139 43.1464 23.0972 43.1211C22.0822 43.1467 21.0784 42.9046 20.1867 42.4191C19.1709 41.872 18.0302 41.5986 16.8768 41.6259C15.7233 41.5986 14.5826 41.872 13.5668 42.4191C12.6751 42.9046 11.6713 43.1467 10.6563 43.1211C9.64137 43.1467 8.63755 42.9046 7.74586 42.4191C7.22577 42.1506 6.6761 41.9438 6.10801 41.8028H5.99958L5.83979 41.7686L5.65146 41.74H5.53162C5.28623 41.74 5.02372 41.6887 4.73267 41.6773C4.80115 41.9854 4.86963 42.2936 4.94382 42.6018C5.12164 42.6111 5.29882 42.6301 5.47455 42.6588H5.65146H5.77131L6.03953 42.7159C6.13654 42.7159 6.22215 42.7673 6.30775 42.7958C6.65554 42.9156 6.99491 43.0586 7.32356 43.2238C8.33935 43.7709 9.48005 44.0443 10.6335 44.017C11.787 44.0443 12.9277 43.7709 13.9435 43.2238C14.8351 42.7383 15.839 42.4962 16.8539 42.5219C17.8706 42.4971 18.8761 42.7391 19.7701 43.2238C20.7837 43.7712 21.9227 44.0446 23.0743 44.017C24.2278 44.0443 25.3685 43.7709 26.3843 43.2238C26.7298 43.0584 27.0864 42.9173 27.4515 42.8015L26.8808 45.5408C26.527 45.672 26.2245 45.8147 25.9335 45.9517C25.0617 46.4335 24.0756 46.6702 23.0801 46.6365C22.0844 46.6713 21.098 46.4346 20.2267 45.9517C19.1824 45.3964 18.0135 45.1174 16.8311 45.1413C15.6504 45.1171 14.4833 45.3961 13.4413 45.9517C12.5695 46.4335 11.5834 46.6702 10.5879 46.6365C9.5924 46.6693 8.60656 46.4327 7.73445 45.9517L7.20942 45.6549H7.17518L7.09529 45.6207C6.64131 45.4323 6.16603 45.3001 5.68 45.2269C5.83979 45.7063 6.01099 46.1856 6.1879 46.665C6.97438 48.758 7.93855 50.7799 9.06984 52.7085C9.1212 52.7998 9.17256 52.8911 9.22963 52.9767C9.2867 53.0623 9.39513 53.2564 9.48073 53.399L9.66906 53.7072L9.91445 54.101L10.1313 54.432L10.3767 54.8029C10.4509 54.9228 10.5308 55.0426 10.6107 55.1624L10.8504 55.5049L11.1243 55.8986L11.3412 56.2068L11.6721 56.6633L11.8548 56.9087L12.3912 57.6392C16.7683 63.2718 22.8061 68.4194 30.3334 72.9334L30.984 73.3272L31.6289 72.9334C39.1561 68.4194 45.1939 63.2718 49.5711 57.6392L50.3643 56.5777C50.3985 56.5378 50.4271 56.4921 50.4613 56.4465C50.7238 56.0869 50.9806 55.7217 51.226 55.3565L51.2888 55.2652C51.8138 54.489 52.316 53.7072 52.784 52.9083C53.9849 50.8806 55.001 48.7491 55.82 46.5395C55.9741 46.1172 56.1225 45.7006 56.2651 45.2783C55.7793 45.3522 55.3041 45.4844 54.8498 45.672L54.7928 45.6549H54.7471L54.1479 45.9288C53.2733 46.3789 52.3038 46.6136 51.3202 46.6136C50.3366 46.6136 49.3671 46.3789 48.4925 45.9288C47.4409 45.3959 46.2786 45.1181 45.0998 45.1181C43.9209 45.1181 42.7586 45.3959 41.7071 45.9288C40.8314 46.3789 39.8611 46.6137 38.8765 46.6137C37.8919 46.6137 36.9216 46.3789 36.0459 45.9288C35.7606 45.7919 35.4752 45.6492 35.0986 45.5179L34.0086 40.4617L35.2127 40.7071L34.488 37.5056L38.4314 33.5907L41.0337 35.5025L45.0912 31.3879L49.1659 35.5025L51.7625 33.5964L56.4249 38.3217L57.5948 39.5087C57.6519 39.0978 57.6975 38.6869 57.7375 38.2703V38.0934C57.7375 38.0078 57.7375 37.9279 57.7375 37.8423C58.0106 34.6865 57.8802 31.5089 57.3494 28.3861ZM49.6909 28.991L49.7651 28.7513H51.2546L51.7168 27.3361H51.9394L52.4016 28.7513H53.8911L53.9653 28.991L52.7612 29.8642L53.2234 31.2795L53.0237 31.4278L51.8195 30.549L50.6154 31.4278L50.41 31.2795L50.8722 29.8642L49.6909 28.991ZM46.5065 28.8198L46.3068 28.9682L45.0912 28.0894L43.8871 28.9682L43.6873 28.8198L44.161 27.3931L42.9512 26.52L43.0311 26.2803H44.5205L44.9771 24.865H45.2282L45.6904 26.2803H47.1799L47.2541 26.52L46.05 27.3931L46.5065 28.8198ZM39.7725 31.2795L39.5727 31.4278L38.3686 30.549L37.1645 31.4278L36.9647 31.2795L37.4213 29.8642L36.2171 28.991L36.2913 28.7513H37.7808L38.243 27.3361H38.4941L38.9507 28.7513H40.4402L40.5201 28.991L39.3102 29.8642L39.7725 31.2795ZM34.3053 48.0004L32.833 47.6979L34.8589 57.3653L30.984 55.8016L27.1034 57.3653L29.1121 47.6979L27.6398 48.0004L29.5801 38.8067L28.4387 39.035L30.8641 26.2518H31.1038L33.495 39.0464L32.3536 38.8181L34.3053 48.0004ZM31.7715 58.6436L32.0683 67.7745H29.894L30.2136 58.6436L30.2649 57.1598L30.984 56.8003L31.7202 57.1655L31.7715 58.6436ZM29.1121 61.2744L29.0665 61.8451C28.3279 61.8568 27.604 62.0529 26.9607 62.4158C25.7691 63.0556 24.4322 63.3761 23.0801 63.346C21.7887 63.3799 20.5094 63.0895 19.3592 62.5014L19.2108 62.4272L18.8171 62.2446H18.76C18.5915 62.1681 18.418 62.1033 18.2407 62.0506L18.8114 61.594L18.9597 61.4628C19.2451 61.5712 19.5304 61.6967 19.7644 61.8223L20.1068 61.9821C21.0319 62.4247 22.0493 62.6399 23.0743 62.6098C24.2273 62.6386 25.3679 62.3672 26.3843 61.8223C27.2154 61.3442 28.1535 61.0831 29.1121 61.0633V61.2744ZM41.8554 61.9364L42.1979 61.7766C42.4604 61.6511 42.7172 61.5255 43.0025 61.4171L43.7273 62.0277C43.532 62.0858 43.3412 62.1583 43.1566 62.2446L43.0995 62.2731L42.7628 62.4272L42.6145 62.5014C41.4609 63.0914 40.1774 63.3818 38.8822 63.346C37.533 63.3786 36.1982 63.0621 35.0073 62.4272C34.3584 62.0678 33.6317 61.8719 32.8901 61.8565L32.8444 61.2859V61.0861C33.8017 61.088 34.7434 61.3293 35.5837 61.788C36.6001 62.333 37.7407 62.6043 38.8936 62.5756C39.9158 62.6003 40.9291 62.3812 41.8497 61.9364H41.8554ZM26.4813 47.0987H26.5213L25.9506 49.6611L27.4743 49.3529L25.2829 59.6252L29.369 57.5993L29.2662 58.9803L29.1749 60.173C28.0614 60.1618 26.9634 60.4348 25.9848 60.9663C25.091 61.4374 24.0899 61.6675 23.0801 61.634C22.1392 61.6748 21.2032 61.4785 20.3579 61.0633L20.1696 60.9777C19.8696 60.8248 19.5609 60.6895 19.2451 60.5725V47.8577H19.2051L18.332 48.5197V60.7323L17.5159 61.4171V48.086L19.1367 46.8647L19.2108 46.899L19.5361 47.0474L19.6959 47.1216C19.9413 47.2414 20.1981 47.3669 20.4892 47.4811C21.3083 47.7944 22.1805 47.9456 23.0572 47.9262C24.2473 47.9597 25.4255 47.6823 26.4756 47.1216L26.4813 47.0987ZM35.4981 47.0987C36.4134 47.5636 37.4141 47.8363 38.4387 47.9C39.4633 47.9638 40.4901 47.8174 41.456 47.4697C41.747 47.3555 42.0267 47.23 42.2549 47.1101H42.3006C42.4433 47.036 42.5859 46.9675 42.7343 46.9047L42.8085 46.8705L44.4292 48.0917V61.4456L43.6131 60.7608V48.5483L42.7001 47.8577V60.5497C42.3843 60.6666 42.0756 60.8019 41.7756 60.9549L41.5872 61.0405C40.7492 61.4608 39.8193 61.6648 38.8822 61.634C37.8657 61.6662 36.8584 61.4321 35.9603 60.9549C34.9775 60.4236 33.8759 60.1507 32.7588 60.1616L32.6618 58.9632L32.5591 57.5821L36.668 59.6138L36.3826 58.2955L34.4765 49.3643L36.0003 49.6725L35.4296 47.1044L35.4981 47.0987Z" />
<path d="M41.45 50.9839L41.8609 50.807V49.7969H41.7924L41.45 49.9624C40.6485 50.3419 39.7683 50.5257 38.8819 50.4988C37.9299 50.5257 36.9862 50.3138 36.137 49.8825V50.8812C37.8381 51.561 39.7306 51.5874 41.45 50.9554V50.9839Z" />
<path d="M41.45 53.7018C40.6485 54.0813 39.7683 54.2652 38.8819 54.2383C38.1648 54.2567 37.4505 54.1406 36.7761 53.8959V54.8603C37.4586 55.0664 38.1691 55.1646 38.8819 55.1514C39.7601 55.1754 40.6339 55.02 41.45 54.6948L41.8609 54.5179V53.5078H41.7924L41.45 53.7018Z" />
<path d="M41.4496 57.3994C40.6521 57.7939 39.771 57.9897 38.8815 57.9701C38.4703 57.9728 38.0596 57.9384 37.6545 57.8674V58.7805C38.0609 58.8386 38.471 58.8672 38.8815 58.8661C39.7595 58.8872 40.6327 58.732 41.4496 58.4095C41.5922 58.3524 41.7292 58.2897 41.8605 58.2269V57.2168L41.792 57.251L41.4496 57.3994Z" />
<path d="M8.82983 23.7172L9.34345 24.071L14.685 16.772V15.8418H13.8005L8.82983 23.7172Z" />
<path d="M39.0986 42.1563V39.0176H37.7747V39.7766H38.2141V42.1563H39.0986Z" />
<path d="M41.6157 41.3117C41.676 41.5877 41.8289 41.8348 42.0489 42.012C42.269 42.1891 42.543 42.2857 42.8256 42.2857C43.1081 42.2857 43.3821 42.1891 43.6022 42.012C43.8222 41.8348 43.9751 41.5877 44.0354 41.3117C44.036 41.1409 43.9852 40.9738 43.8895 40.8323C43.7938 40.6909 43.6577 40.5815 43.499 40.5184C43.6248 40.4528 43.7298 40.3534 43.8024 40.2315C43.875 40.1095 43.9122 39.9698 43.9099 39.8279C43.8644 39.5733 43.7309 39.3429 43.5327 39.1769C43.3344 39.0109 43.0841 38.9199 42.8256 38.9199C42.567 38.9199 42.3167 39.0109 42.1184 39.1769C41.9202 39.3429 41.7867 39.5733 41.7413 39.8279C41.7401 39.9702 41.7785 40.1101 41.852 40.232C41.9255 40.3539 42.0314 40.453 42.1579 40.5184C41.9981 40.5806 41.8608 40.6896 41.764 40.8311C41.6673 40.9727 41.6156 41.1402 41.6157 41.3117ZM42.8084 40.1304C42.7495 40.1315 42.6916 40.1151 42.642 40.0831C42.5925 40.0512 42.5536 40.0053 42.5302 39.9512C42.5069 39.8971 42.5002 39.8372 42.511 39.7793C42.5218 39.7213 42.5496 39.6679 42.5909 39.6259C42.6321 39.5838 42.685 39.555 42.7427 39.543C42.8004 39.5311 42.8604 39.5367 42.9149 39.5589C42.9695 39.5812 43.0162 39.6192 43.0491 39.6682C43.0819 39.7171 43.0995 39.7747 43.0995 39.8336C43.1003 39.8723 43.0933 39.9108 43.079 39.9467C43.0647 39.9827 43.0434 40.0155 43.0163 40.0431C42.9892 40.0707 42.9568 40.0927 42.9212 40.1077C42.8855 40.1226 42.8471 40.1304 42.8084 40.1304ZM42.8084 41.5342C42.7232 41.5327 42.6419 41.4978 42.5821 41.437C42.5223 41.3761 42.4889 41.2942 42.4889 41.2089C42.4889 41.1242 42.5225 41.0429 42.5825 40.983C42.6424 40.923 42.7237 40.8894 42.8084 40.8894C42.8932 40.8894 42.9745 40.923 43.0344 40.983C43.0944 41.0429 43.128 41.1242 43.128 41.2089C43.128 41.2942 43.0945 41.3761 43.0348 41.437C42.975 41.4978 42.8937 41.5327 42.8084 41.5342Z" />
<path d="M47.408 39.0173L46.7403 39.8904C46.444 40.2389 46.2661 40.6726 46.2324 41.1288C46.2374 41.2964 46.2781 41.4611 46.3519 41.6117C46.4257 41.7623 46.5309 41.8953 46.6604 42.0019C46.9203 42.1903 47.2356 42.2867 47.5564 42.2759C47.725 42.2932 47.8954 42.2757 48.057 42.2244C48.2185 42.1732 48.3679 42.0894 48.4957 41.9781C48.6236 41.8668 48.7273 41.7305 48.8003 41.5775C48.8733 41.4246 48.9142 41.2582 48.9203 41.0888C48.932 40.9455 48.9143 40.8014 48.8683 40.6651C48.8223 40.5289 48.749 40.4035 48.6528 40.2967C48.5566 40.1898 48.4396 40.1037 48.309 40.0437C48.1784 39.9836 48.0368 39.9509 47.8931 39.9475C47.7925 39.9482 47.6925 39.9636 47.5963 39.9931L48.4238 39.0059L47.408 39.0173ZM47.5621 40.6494C47.6832 40.6494 47.7993 40.6975 47.8849 40.7831C47.9706 40.8688 48.0187 40.9849 48.0187 41.106C48.0187 41.227 47.9706 41.3432 47.8849 41.4288C47.7993 41.5144 47.6832 41.5625 47.5621 41.5625C47.5022 41.5625 47.4428 41.5507 47.3874 41.5278C47.332 41.5048 47.2817 41.4712 47.2393 41.4288C47.1969 41.3864 47.1633 41.3361 47.1403 41.2807C47.1174 41.2253 47.1056 41.1659 47.1056 41.106C47.1056 41.046 47.1174 40.9866 47.1403 40.9313C47.1633 40.8759 47.1969 40.8255 47.2393 40.7831C47.2817 40.7407 47.332 40.7071 47.3874 40.6842C47.4428 40.6612 47.5022 40.6494 47.5621 40.6494Z" />
<path d="M50.9636 41.3117C51.0239 41.5877 51.1768 41.8348 51.3969 42.012C51.6169 42.1891 51.8909 42.2857 52.1735 42.2857C52.456 42.2857 52.73 42.1891 52.9501 42.012C53.1701 41.8348 53.323 41.5877 53.3833 41.3117C53.3839 41.1409 53.3331 40.9738 53.2374 40.8323C53.1417 40.6909 53.0056 40.5815 52.8469 40.5184C52.9727 40.4528 53.0778 40.3534 53.1503 40.2315C53.2229 40.1095 53.2601 39.9698 53.2578 39.8279C53.2124 39.5733 53.0788 39.3429 52.8806 39.1769C52.6824 39.0109 52.432 38.9199 52.1735 38.9199C51.9149 38.9199 51.6646 39.0109 51.4663 39.1769C51.2681 39.3429 51.1346 39.5733 51.0892 39.8279C51.0869 39.9698 51.1241 40.1095 51.1966 40.2315C51.2692 40.3534 51.3743 40.4528 51.5001 40.5184C51.3413 40.5815 51.2053 40.6909 51.1096 40.8323C51.0139 40.9738 50.963 41.1409 50.9636 41.3117ZM52.1735 40.1304C52.1146 40.1315 52.0566 40.1151 52.0071 40.0831C51.9575 40.0512 51.9186 40.0053 51.8953 39.9512C51.8719 39.8971 51.8652 39.8372 51.876 39.7793C51.8868 39.7213 51.9146 39.6679 51.9559 39.6259C51.9972 39.5838 52.05 39.555 52.1077 39.543C52.1655 39.5311 52.2254 39.5367 52.28 39.5589C52.3345 39.5812 52.3812 39.6192 52.4141 39.6682C52.4469 39.7171 52.4645 39.7747 52.4645 39.8336C52.4653 39.8723 52.4583 39.9108 52.444 39.9467C52.4297 39.9827 52.4084 40.0155 52.3813 40.0431C52.3542 40.0707 52.3219 40.0927 52.2862 40.1077C52.2505 40.1226 52.2122 40.1304 52.1735 40.1304ZM52.1735 41.5342C52.0882 41.5327 52.0069 41.4978 51.9471 41.437C51.8874 41.3761 51.8539 41.2942 51.8539 41.2089C51.8539 41.1242 51.8876 41.0429 51.9475 40.983C52.0074 40.923 52.0887 40.8894 52.1735 40.8894C52.2582 40.8894 52.3395 40.923 52.3994 40.983C52.4594 41.0429 52.4931 41.1242 52.4931 41.2089C52.4931 41.2942 52.4596 41.3761 52.3998 41.437C52.34 41.4978 52.2588 41.5327 52.1735 41.5342Z" />
</svg>
